<svg width="400" height="400" viewBox="0 0 400 400" xmlns="http://www.w3.org/2000/svg">
  <rect width="400" height="400" fill="#FAFAF8"/>
  <g fill="none" stroke="#E5E5E5" stroke-width="1.2">
    <path d="M0 50 Q 100 20, 200 80 T 400 100" />
    <path d="M0 100 Q 150 50, 250 120 T 400 150" />
    <path d="M0 150 Q 80 120, 180 180 T 400 200" />
    <path d="M0 200 Q 120 180, 220 250 T 400 250" />
    <path d="M0 250 Q 90 220, 190 300 T 400 300" />
    <path d="M0 300 Q 140 280, 240 350 T 400 350" />
    <path d="M0 350 Q 110 330, 210 390 T 400 400" />
    
    <!-- Curvas intermediárias para parecer mais denso -->
    <path d="M0 75 Q 120 35, 220 100 T 400 125" />
    <path d="M0 125 Q 110 85, 210 150 T 400 175" />
    <path d="M0 175 Q 100 150, 200 215 T 400 225" />
    <path d="M0 225 Q 105 200, 205 275 T 400 275" />
    <path d="M0 275 Q 115 250, 215 325 T 400 325" />
    <path d="M0 325 Q 125 305, 225 370 T 400 375" />
  </g>
</svg>
